<svg xmlns="http://www.w3.org/2000/svg" width="74" height="74" fill="none"><g filter="url(#a)"><rect width="64" height="64" x="5" y="1" fill="url(#b)" rx="32"/><rect width="65" height="65" x="4.5" y=".5" stroke="url(#c)" rx="32.5"/></g><g filter="url(#d)" shape-rendering="crispEdges"><path fill="#fff" d="M42.584 16.456a1.733 1.733 0 0 1 2.475 0l6.038 6.039a1.733 1.733 0 0 1 0 2.474l-6.286 6.287 6.336 6.335c.693.693.643 1.832 0 2.475l-6.088 6.088c-.644.644-1.733.644-2.426-.05l-6.335-6.335-6.336 6.336a1.733 1.733 0 0 1-2.475 0l-6.039-6.039a1.733 1.733 0 0 1 0-2.475l6.336-6.335-6.336-6.336c-.643-.644-.692-1.782-.05-2.425l6.09-6.089c.643-.643 1.83-.643 2.474 0l6.336 6.336 6.286-6.286Z"/><path stroke="#000" stroke-opacity=".4" stroke-width="2" d="M45.766 15.749a2.733 2.733 0 0 0-3.89 0l-5.578 5.579-5.629-5.629c-.539-.538-1.266-.775-1.944-.775-.679 0-1.406.237-1.945.775l-6.088 6.089c-1.07 1.07-.947 2.843.05 3.839l5.628 5.629-5.629 5.628a2.733 2.733 0 0 0 0 3.89l6.039 6.038a2.733 2.733 0 0 0 3.89 0l5.628-5.629 5.628 5.629c1.065 1.065 2.787 1.102 3.84.05l6.088-6.089c1.016-1.015 1.102-2.787 0-3.889l-5.629-5.628 5.58-5.58a2.733 2.733 0 0 0 0-3.888l-6.04-6.04Z"/></g><defs><linearGradient id="b" x1="37" x2="37" y1="1" y2="65" gradientUnits="userSpaceOnUse"><stop stop-color="#FC5935"/><stop offset="1" stop-color="#E92A0E"/></linearGradient><linearGradient id="c" x1="37" x2="37" y1="65" y2="1" gradientUnits="userSpaceOnUse"><stop stop-color="#9B1909"/><stop offset="1" stop-color="#D53C0B"/></linearGradient><filter id="a" width="74" height="80" x="0" y="-6" color-interpolation-filters="sRGB" filterUnits="userSpaceOnUse"><feFlood flood-opacity="0" result="BackgroundImageFix"/><feColorMatrix in="SourceAlpha" result="hardAlpha" values="0 0 0 0 0 0 0 0 0 0 0 0 0 0 0 0 0 0 127 0"/><feOffset dy="4"/><feGaussianBlur stdDeviation="2"/><feComposite in2="hardAlpha" operator="out"/><feColorMatrix values="0 0 0 0 0 0 0 0 0 0 0 0 0 0 0 0 0 0 0.25 0"/><feBlend in2="BackgroundImageFix" result="effect1_dropShadow_116_2532"/><feBlend in="SourceGraphic" in2="effect1_dropShadow_116_2532" result="shape"/><feColorMatrix in="SourceAlpha" result="hardAlpha" values="0 0 0 0 0 0 0 0 0 0 0 0 0 0 0 0 0 0 127 0"/><feOffset dy="-6"/><feGaussianBlur stdDeviation="3"/><feComposite in2="hardAlpha" k2="-1" k3="1" operator="arithmetic"/><feColorMatrix values="0 0 0 0 0.389144 0 0 0 0 0.0146246 0 0 0 0 0.0146246 0 0 0 0.4 0"/><feBlend in2="shape" result="effect2_innerShadow_116_2532"/><feColorMatrix in="SourceAlpha" result="hardAlpha" values="0 0 0 0 0 0 0 0 0 0 0 0 0 0 0 0 0 0 127 0"/><feOffset dy="6"/><feGaussianBlur stdDeviation="2"/><feComposite in2="hardAlpha" k2="-1" k3="1" operator="arithmetic"/><feColorMatrix values="0 0 0 0 0.976471 0 0 0 0 0.717647 0 0 0 0 0.462745 0 0 0 0.5 0"/><feBlend in2="effect2_innerShadow_116_2532" result="effect3_innerShadow_116_2532"/></filter><filter id="d" width="34.72" height="36.707" x="18.929" y="13.924" color-interpolation-filters="sRGB" filterUnits="userSpaceOnUse"><feFlood flood-opacity="0" result="BackgroundImageFix"/><feColorMatrix in="SourceAlpha" result="hardAlpha" values="0 0 0 0 0 0 0 0 0 0 0 0 0 0 0 0 0 0 127 0"/><feOffset dy="2"/><feComposite in2="hardAlpha" operator="out"/><feColorMatrix values="0 0 0 0 0 0 0 0 0 0 0 0 0 0 0 0 0 0 0.25 0"/><feBlend in2="BackgroundImageFix" result="effect1_dropShadow_116_2532"/><feBlend in="SourceGraphic" in2="effect1_dropShadow_116_2532" result="shape"/></filter></defs></svg>