<svg xmlns="http://www.w3.org/2000/svg" width="46" height="46" fill="none"><g filter="url(#a)"><circle cx="23" cy="19" r="18" fill="url(#b)"/><circle cx="23" cy="19" r="18.5" stroke="url(#c)"/></g><path fill="#fff" d="M32.604 15.47c.63 0 1.125.495 1.125 1.125v5.49c0 .63-.495 1.125-1.125 1.125H26.89v5.76c0 .63-.54 1.125-1.125 1.125H20.23c-.585 0-1.08-.495-1.08-1.125v-5.76h-5.76c-.63 0-1.125-.495-1.125-1.125v-5.49c0-.63.495-1.125 1.125-1.125h5.76V9.71c0-.585.495-1.125 1.08-1.125h5.535c.585 0 1.125.54 1.125 1.125v5.76h5.715Z"/><path stroke="#000" stroke-opacity=".25" stroke-width="2" d="M34.73 16.595a2.114 2.114 0 0 0-2.126-2.125H27.89V9.71c0-.6-.272-1.125-.636-1.489a2.123 2.123 0 0 0-1.489-.636H20.23c-1.189 0-2.08 1.04-2.08 2.125v4.76h-4.76a2.114 2.114 0 0 0-2.125 2.125v5.49c0 1.182.943 2.125 2.125 2.125h4.76v4.76c0 1.155.916 2.125 2.08 2.125h5.535c1.111 0 2.125-.917 2.125-2.125v-4.76h4.715a2.114 2.114 0 0 0 2.125-2.125v-5.49Z"/><defs><linearGradient id="b" x1="23" x2="23" y1="1" y2="37" gradientUnits="userSpaceOnUse"><stop stop-color="#8EFB53"/><stop offset="1" stop-color="#13A408"/></linearGradient><linearGradient id="c" x1="23" x2="23" y1="37" y2="1" gradientUnits="userSpaceOnUse"><stop stop-color="#0C6A00"/><stop offset="1" stop-color="#20CE09"/></linearGradient><filter id="a" width="46" height="52" x="0" y="-6" color-interpolation-filters="sRGB" filterUnits="userSpaceOnUse"><feFlood flood-opacity="0" result="BackgroundImageFix"/><feColorMatrix in="SourceAlpha" result="hardAlpha" values="0 0 0 0 0 0 0 0 0 0 0 0 0 0 0 0 0 0 127 0"/><feOffset dy="4"/><feGaussianBlur stdDeviation="2"/><feComposite in2="hardAlpha" operator="out"/><feColorMatrix values="0 0 0 0 0 0 0 0 0 0 0 0 0 0 0 0 0 0 0.25 0"/><feBlend in2="BackgroundImageFix" result="effect1_dropShadow_116_2470"/><feBlend in="SourceGraphic" in2="effect1_dropShadow_116_2470" result="shape"/><feColorMatrix in="SourceAlpha" result="hardAlpha" values="0 0 0 0 0 0 0 0 0 0 0 0 0 0 0 0 0 0 127 0"/><feOffset dy="-6"/><feGaussianBlur stdDeviation="3"/><feComposite in2="hardAlpha" k2="-1" k3="1" operator="arithmetic"/><feColorMatrix values="0 0 0 0 0.412451 0 0 0 0 0.0489786 0 0 0 0 0.28887 0 0 0 0.25 0"/><feBlend in2="shape" result="effect2_innerShadow_116_2470"/><feColorMatrix in="SourceAlpha" result="hardAlpha" values="0 0 0 0 0 0 0 0 0 0 0 0 0 0 0 0 0 0 127 0"/><feOffset dy="6"/><feGaussianBlur stdDeviation="2"/><feComposite in2="hardAlpha" k2="-1" k3="1" operator="arithmetic"/><feColorMatrix values="0 0 0 0 0.964715 0 0 0 0 1 0 0 0 0 0.558936 0 0 0 0.4 0"/><feBlend in2="effect2_innerShadow_116_2470" result="effect3_innerShadow_116_2470"/></filter></defs></svg>